<?xml version="1.0" encoding="utf-8"?>
<!-- Generator: Adobe Illustrator 25.2.0, SVG Export Plug-In . SVG Version: 6.00 Build 0)  -->
<svg version="1.1" id="Layer_1" xmlns="http://www.w3.org/2000/svg" xmlns:xlink="http://www.w3.org/1999/xlink" x="0px" y="0px"
	 viewBox="0 0 512 512" style="enable-background:new 0 0 512 512;" xml:space="preserve">
<style type="text/css">
	.st0{fill:#969696;}
</style>
<g>
	<g>
		<path class="st0" d="M447.9,103.6c0-3.1-1.2-6.1-3.5-8.4L352.7,3.5c0,0,0,0,0,0c-2.2-2.2-5.2-3.5-8.5-3.5H89.3
			C75.4,0,64,11.3,64,25.2v461.5c0,13.9,11.3,25.2,25.2,25.2h333.4c13.9,0,25.2-11.3,25.2-25.2v-383
			C448,103.7,447.9,103.7,447.9,103.6z M356.2,40.9L407,91.8h-49.6c-0.7,0-1.3-0.6-1.3-1.3L356.2,40.9L356.2,40.9z M424,486.8
			c0,0.7-0.6,1.3-1.3,1.3H89.3c-0.7,0-1.3-0.6-1.3-1.3V25.2c0-0.7,0.6-1.3,1.3-1.3h242.9v66.5c0,13.9,11.3,25.2,25.2,25.2H424
			L424,486.8L424,486.8z"/>
	</g>
</g>
<g>
	<g>
		<path class="st0" d="M362.1,164H149.9c-6.6,0-12,5.4-12,12c0,6.6,5.4,12,12,12h212.2c6.6,0,12-5.4,12-12
			C374.1,169.4,368.7,164,362.1,164z"/>
	</g>
</g>
<g>
	<g>
		<path class="st0" d="M362.1,236.4H149.9c-6.6,0-12,5.4-12,12c0,6.6,5.4,12,12,12h212.2c6.6,0,12-5.4,12-12
			C374.1,241.7,368.7,236.4,362.1,236.4z"/>
	</g>
</g>
<g>
	<g>
		<path class="st0" d="M362.1,308.7H149.9c-6.6,0-12,5.4-12,12c0,6.6,5.4,12,12,12h212.2c6.6,0,12-5.4,12-12
			C374.1,314.1,368.7,308.7,362.1,308.7z"/>
	</g>
</g>
<g>
	<g>
		<path class="st0" d="M256,381H149.9c-6.6,0-12,5.4-12,12c0,6.6,5.4,12,12,12H256c6.6,0,12-5.4,12-12S262.6,381,256,381z"/>
	</g>
</g>
</svg>
