<?xml version="1.0" encoding="utf-8"?>
<!-- Generator: Adobe Illustrator 25.2.0, SVG Export Plug-In . SVG Version: 6.00 Build 0)  -->
<svg version="1.1" id="Layer_1" xmlns="http://www.w3.org/2000/svg" xmlns:xlink="http://www.w3.org/1999/xlink" x="0px" y="0px"
	 viewBox="0 0 100 125" style="enable-background:new 0 0 100 125;" xml:space="preserve">
<style type="text/css">
	.st0{fill:#969696;}
</style>
<g id="Layer_2_1_">
</g>
<g id="Layer_1_1_">
	<g>
		<path class="st0" d="M66.9,58.3l-27,3.5c-2.2,0.3-3.9,2.2-3.9,4.6v23.2c-0.8-0.1-1.4-0.3-2.2-0.3c-5.2,0-9.3,3.4-9.3,7.8
			s4,7.8,9.3,7.8s9.3-3.4,9.3-7.8V74.1l22.3-2.9v14.5c-0.8-0.1-1.4-0.3-2.2-0.3c-5.2,0-9.3,3.4-9.3,7.8c0,4.4,4,7.8,9.3,7.8
			s9.3-3.4,9.3-7.8V62.9c0-1.3-0.5-2.6-1.6-3.4C69.5,58.6,68.2,58.1,66.9,58.3z"/>
		<path class="st0" d="M96.5,31.6L69.1,4.1c-2.2-2.2-5.1-3.4-8.2-3.4H11.6l0,0c-3.1,0-6,1.2-8.2,3.4S0,9.2,0,12.3v100.4
			c0,6.4,5.2,11.6,11.6,11.6h76.8c6.4,0,11.6-5.2,11.6-11.6v-73C100,36.6,98.7,33.7,96.5,31.6z M64.9,14.3l21.4,21.4h-19
			c-1.3,0-2.2-1-2.2-2.2V14.3H64.9z M88.3,114.3H11.6c-0.8,0-1.4-0.7-1.4-1.4V12.2c0-0.5,0.3-0.9,0.4-1c0.3-0.3,0.5-0.4,1-0.4h43.2
			v22.7c0,6.9,5.6,12.4,12.4,12.4h22.6v67C89.8,113.6,89.2,114.3,88.3,114.3z"/>
	</g>
</g>
</svg>
