<?xml version="1.0" encoding="utf-8"?>
<!-- Generator: Adobe Illustrator 25.2.0, SVG Export Plug-In . SVG Version: 6.00 Build 0)  -->
<svg version="1.1" id="Layer_1" xmlns="http://www.w3.org/2000/svg" xmlns:xlink="http://www.w3.org/1999/xlink" x="0px" y="0px"
	 viewBox="0 0 100 125" style="enable-background:new 0 0 100 125;" xml:space="preserve">
<style type="text/css">
	.st0{fill:#969696;}
</style>
<g id="Layer_2_1_">
</g>
<g>
	<path class="st0" d="M96.5,31.5L69.1,4c-2.2-2.2-5.1-3.4-8.2-3.4H11.6l0,0c-3.1,0-6,1.2-8.2,3.4S0,9.1,0,12.2v100.5
		c0,6.4,5.2,11.6,11.6,11.6h76.8c6.4,0,11.6-5.2,11.6-11.6V39.6C100,36.6,98.7,33.6,96.5,31.5z M65.1,14.2l21.4,21.4H67.3
		c-1.3,0-2.2-1-2.2-2.2V14.2z M88.3,114.2H11.6c-0.8,0-1.4-0.7-1.4-1.4V12.1c0-0.5,0.3-0.9,0.4-1c0.3-0.3,0.5-0.4,1-0.4h43.2v22.7
		c0,6.9,5.6,12.4,12.4,12.4h22.6v67C89.8,113.7,89.2,114.2,88.3,114.2z"/>
	<path class="st0" d="M34.4,94.5H22.3c-1,0-2,0.9-2,2v6.1c0,1,0.9,2,2,2h12.1c1,0,2-0.9,2-2v-6.1C36.4,95.6,35.7,94.5,34.4,94.5z"/>
	<path class="st0" d="M34.4,75H22.3c-1,0-2,0.9-2,2V83c0,1,0.9,2,2,2h12.1c1,0,2-0.9,2-2v-6.1C36.4,75.9,35.7,75,34.4,75z"/>
	<path class="st0" d="M34.4,55.3H22.3c-1,0-2,0.9-2,2v6.1c0,1,0.9,2,2,2h12.1c1,0,2-0.9,2-2v-6.1C36.4,56.3,35.7,55.3,34.4,55.3z"/>
	<path class="st0" d="M56.2,94.5H44.1c-1,0-2,0.9-2,2v6.1c0,1,0.9,2,2,2h12.1c1,0,2-0.9,2-2v-6.1C58.1,95.6,57.2,94.5,56.2,94.5z"/>
	<path class="st0" d="M56.2,75H44.1c-1,0-2,0.9-2,2V83c0,1,0.9,2,2,2h12.1c1,0,2-0.9,2-2v-6.1C58.1,75.9,57.2,75,56.2,75z"/>
	<path class="st0" d="M56.2,55.3H44.1c-1,0-2,0.9-2,2v6.1c0,1,0.9,2,2,2h12.1c1,0,2-0.9,2-2v-6.1C58.1,56.3,57.2,55.3,56.2,55.3z"/>
	<path class="st0" d="M77.6,94.5H65.4c-1,0-2,0.9-2,2v6.1c0,1,0.9,2,2,2h12.1c1,0,2-0.9,2-2v-6.1C79.8,95.6,78.7,94.5,77.6,94.5z"/>
	<path class="st0" d="M77.6,75H65.4c-1,0-2,0.9-2,2V83c0,1,0.9,2,2,2h12.1c1,0,2-0.9,2-2v-6.1C79.8,75.9,78.7,75,77.6,75z"/>
	<path class="st0" d="M77.6,55.3H65.4c-1,0-2,0.9-2,2v6.1c0,1,0.9,2,2,2h12.1c1,0,2-0.9,2-2v-6.1C79.8,56.3,78.7,55.3,77.6,55.3z"/>
</g>
</svg>
