<?xml version="1.0" encoding="utf-8"?>
<!-- Generator: Adobe Illustrator 25.2.0, SVG Export Plug-In . SVG Version: 6.00 Build 0)  -->
<svg version="1.1" id="Layer_1" xmlns="http://www.w3.org/2000/svg" xmlns:xlink="http://www.w3.org/1999/xlink" x="0px" y="0px"
	 viewBox="0 0 360 450" style="enable-background:new 0 0 360 450;" xml:space="preserve">
<style type="text/css">
	.st0{fill:#969696;}
</style>
<g id="surface1">
	<path class="st0" d="M347.3,113.5l-98.6-99c-8-8-18.3-12.2-29.6-12.2H41.8c-11.3,0-21.6,4.2-29.6,12.2C4.2,22.5,0,32.8,0,44.1
		v361.9c0,23,18.8,41.8,41.8,41.8h276.5c23,0,41.8-18.8,41.8-41.8V142.6C360,131.8,355.3,121,347.3,113.5z M234.2,51.1l77,77h-69
		c-4.7,0-8-3.8-8-8V51.1z M317.8,411.1h-276c-2.8,0-5.2-2.3-5.2-5.2V43.6c0-1.9,0.9-3.3,1.4-3.8c0.9-0.9,1.9-1.4,3.8-1.4h155.4v81.7
		c0,24.9,20.2,44.6,44.6,44.6h81.2v241.3C323.4,409.2,321,411.1,317.8,411.1z"/>
	<path class="st0" d="M232.8,285.3c-4.2-7.5-15-7.5-19.7,0l-19.7,32.4l-32.9-54.9c-4.2-7.5-15-7.5-19.7,0l-53.5,90.1
		c-4.7,7.5,0.9,17.4,9.9,17.4h166.2c8.9,0,14.6-9.9,9.9-17.4L232.8,285.3z"/>
	<path class="st0" d="M235.6,226.2c0,15-12.2,27.2-27.2,27.2c-15,0-27.2-12.2-27.2-27.2c0-15,12.2-27.2,27.2-27.2
		C223.4,198.9,235.6,211.1,235.6,226.2z"/>
</g>
</svg>
