<?xml version="1.0" encoding="utf-8"?>
<!-- Generator: Adobe Illustrator 25.2.0, SVG Export Plug-In . SVG Version: 6.00 Build 0)  -->
<svg version="1.1" id="Layer_1" xmlns="http://www.w3.org/2000/svg" xmlns:xlink="http://www.w3.org/1999/xlink" x="0px" y="0px"
	 viewBox="0 0 100 125" style="enable-background:new 0 0 100 125;" xml:space="preserve">
<style type="text/css">
	.st0{fill:#969696;}
</style>
<g id="Layer_2_1_">
</g>
<g>
	<path class="st0" d="M96.5,31.7L69.3,4.3C67.1,2.1,64.2,1,61.1,1h-49l0,0C9,1,6.1,2.1,3.9,4.3s-3.4,5.1-3.4,8.2v100
		c0,6.4,5.2,11.5,11.5,11.5h76.4c6.4,0,11.5-5.2,11.5-11.5V39.7C100,36.8,98.7,33.9,96.5,31.7z M65.2,14.4l21.1,21.4H67.4
		c-1.3,0-2.2-1-2.2-2.2V14.4z M88.3,113.9H12.1c-0.8,0-1.4-0.6-1.4-1.4V12.4c0-0.5,0.3-0.9,0.4-1c0.3-0.3,0.5-0.4,1-0.4H55v22.6
		c0,6.9,5.6,12.3,12.3,12.3h22.4v66.7C89.9,113.4,89.2,113.9,88.3,113.9z"/>
	<path class="st0" d="M66.2,80.7H49c-0.6,0-1.2-0.5-1.2-1.2V62.4c0-0.6-0.5-1.2-1.2-1.2c-10.2,0.6-18.3,9.1-18.3,19.5
		c0,10.5,9.1,19.6,19.7,19.5C58.4,100,66.7,92,67.3,81.9C67.2,81.1,66.8,80.7,66.2,80.7z"/>
	<path class="st0" d="M54.1,56.3c-0.6,0-1.2,0.5-1.2,1.2v17.1c0,0.6,0.5,1.2,1.2,1.2h17c0.6,0,1.2-0.5,1.2-1.2
		C71.5,64.6,63.8,56.9,54.1,56.3z"/>
</g>
</svg>
