<?xml version="1.0" encoding="utf-8"?>
<!-- Generator: Adobe Illustrator 25.2.0, SVG Export Plug-In . SVG Version: 6.00 Build 0)  -->
<svg version="1.1" id="Layer_1" xmlns="http://www.w3.org/2000/svg" xmlns:xlink="http://www.w3.org/1999/xlink" x="0px" y="0px"
	 viewBox="0 0 512 512" style="enable-background:new 0 0 512 512;" xml:space="preserve">
<style type="text/css">
	.st0{fill:#969696;}
</style>
<g>
	<g>
		<path class="st0" d="M397.7,78.4c6.8,0,12.4-5.5,12.4-12.4V27c0-14.9-12.1-27-27-27H121.6c-3.3,0-6.4,1.3-8.7,3.6L10.5,106
			c-2.3,2.3-3.6,5.5-3.6,8.7V485c0,14.9,12.1,27,27,27H383c14.9,0,27-12.1,27-27V296.3c0-6.8-5.5-12.4-12.4-12.4
			c-6.8,0-12.4,5.5-12.4,12.4V485c0,1.3-1,2.3-2.3,2.3h-349c-1.3,0-2.3-1-2.3-2.3V127.1H107c14.9,0,27-12.1,27-27V24.7h249.1
			c1.3,0,2.3,1,2.3,2.3v39C385.4,72.8,390.9,78.4,397.7,78.4z M109.3,100.1c0,1.3-1,2.3-2.3,2.3H49.1l60.2-60.2V100.1z"/>
	</g>
</g>
<g>
	<g>
		<path class="st0" d="M492.9,100.4l-14.5-14.5c-16.3-16.3-42.8-16.3-59.1,0L303.8,201.3H103.6c-6.8,0-12.4,5.5-12.4,12.4
			s5.5,12.4,12.4,12.4H279l-74.4,74.4h-101c-6.8,0-12.4,5.5-12.4,12.4s5.5,12.4,12.4,12.4H180l-0.2,0.2c-1.5,1.5-2.6,3.4-3.2,5.4
			l-19.1,68.7h-53.9c-6.8,0-12.4,5.5-12.4,12.4s5.5,12.4,12.4,12.4h63.3c0,0,2.7-0.3,3.1-0.4c0.1,0,78-21.6,78-21.6
			c2.1-0.6,3.9-1.7,5.4-3.2l239.4-239.4C509.2,143.2,509.2,116.7,492.9,100.4z M184.6,394.1l10.1-36.3L221,384L184.6,394.1z
			 M244.7,372.8L206,334l197.6-197.6l38.7,38.7L244.7,372.8z M475.4,142.1l-15.6,15.6L421.1,119l15.6-15.6c6.7-6.7,17.5-6.7,24.2,0
			l14.5,14.5C482.1,124.5,482.1,135.4,475.4,142.1z"/>
	</g>
</g>
</svg>
