<?xml version="1.0" encoding="utf-8"?>
<!-- Generator: Adobe Illustrator 25.2.0, SVG Export Plug-In . SVG Version: 6.00 Build 0)  -->
<svg version="1.1" id="Layer_1" xmlns="http://www.w3.org/2000/svg" xmlns:xlink="http://www.w3.org/1999/xlink" x="0px" y="0px"
	 viewBox="0 0 100 125" style="enable-background:new 0 0 100 125;" xml:space="preserve">
<style type="text/css">
	.st0{fill:#969696;}
</style>
<g id="Layer_2_1_">
</g>
<g>
	<path class="st0" d="M95.9,31.9l-27-27.2c-2.2-2.2-5-3.3-8.1-3.3H12.1l0,0C9,1.4,6.2,2.6,4,4.8s-3.3,5-3.3,8.1v99.2
		c0,6.3,5.1,11.5,11.5,11.5h75.8c6.3,0,11.5-5.1,11.5-11.5V40C99.4,37,98.1,34.1,95.9,31.9z M64.7,14.9L85.8,36H66.9
		c-1.3,0-2.2-1-2.2-2.2V14.9z M87.8,113.7H12.1c-0.8,0-1.4-0.6-1.4-1.4V12.9c0-0.5,0.3-0.9,0.4-1c0.3-0.3,0.5-0.4,1-0.4h42.6v22.4
		c0,6.8,5.5,12.2,12.2,12.2h22.3v66.2C89.3,113,88.7,113.7,87.8,113.7z"/>
	<path class="st0" d="M22.3,45.6h24.3c1.3,0,2.1-1.4,1.4-2.6l-5.8-9.9c-0.6-1-2.2-1-2.8,0l-2.8,4.8l-4.9-8.1c-0.6-1-2.2-1-2.8,0
		L21,42.9C20.2,44,21,45.6,22.3,45.6z"/>
	<circle class="st0" cx="38.6" cy="24.5" r="4"/>
	<path class="st0" d="M77.2,94.2H22.6c-1,0-1.9,0.9-1.9,1.9v6c0,1,0.9,1.9,1.9,1.9h54.7c1,0,1.9-0.9,1.9-1.9v-6
		C79.3,95.1,78.4,94.2,77.2,94.2z"/>
	<path class="st0" d="M77.2,74.9H22.6c-1,0-1.9,0.9-1.9,1.9v6c0,1,0.9,1.9,1.9,1.9h54.7c1,0,1.9-0.9,1.9-1.9v-6
		C79.3,75.7,78.4,74.9,77.2,74.9z"/>
	<path class="st0" d="M77.2,55.5H22.6c-1,0-1.9,0.9-1.9,1.9v6c0,1,0.9,1.9,1.9,1.9h54.7c1,0,1.9-0.9,1.9-1.9v-6
		C79.3,56.4,78.4,55.5,77.2,55.5z"/>
</g>
</svg>
