<?xml version="1.0" encoding="utf-8"?>
<!-- Generator: Adobe Illustrator 25.2.0, SVG Export Plug-In . SVG Version: 6.00 Build 0)  -->
<svg version="1.1" id="Layer_1" xmlns="http://www.w3.org/2000/svg" xmlns:xlink="http://www.w3.org/1999/xlink" x="0px" y="0px"
	 viewBox="0 0 41 41" style="enable-background:new 0 0 41 41;" xml:space="preserve">
<style type="text/css">
	.st0{fill:none;stroke:#969696;stroke-width:2.7;stroke-linecap:round;stroke-linejoin:round;stroke-miterlimit:10;}
	.st1{fill:#969696;}
</style>
<path class="st0" d="M23.8,10.6v-9l11.6,11.7h-8.9C25,13.3,23.8,12.1,23.8,10.6z"/>
<path class="st1" d="M25.6,18.8l-9,1.2c-0.7,0.1-1.3,0.7-1.3,1.5v7.7c-0.3,0-0.5-0.1-0.7-0.1c-1.7,0-3.1,1.1-3.1,2.6
	c0,1.5,1.3,2.6,3.1,2.6s3.1-1.1,3.1-2.6v-7.7l7.4-1V28c-0.3,0-0.5-0.1-0.7-0.1c-1.7,0-3.1,1.1-3.1,2.6s1.3,2.6,3.1,2.6
	s3.1-1.1,3.1-2.6V20.4c0-0.4-0.2-0.9-0.5-1.1C26.5,18.9,26,18.8,25.6,18.8z"/>
<path class="st0" d="M35.4,13.8v22.9c0,1.5-1.2,2.7-2.7,2.7H8.3c-1.5,0-2.7-1.2-2.7-2.7V4.3c0-1.5,1.2-2.7,2.7-2.7h15"/>
</svg>
