<?xml version="1.0" encoding="utf-8"?>
<!-- Generator: Adobe Illustrator 25.2.0, SVG Export Plug-In . SVG Version: 6.00 Build 0)  -->
<svg version="1.1" id="Layer_1" xmlns="http://www.w3.org/2000/svg" xmlns:xlink="http://www.w3.org/1999/xlink" x="0px" y="0px"
	 viewBox="0 0 682 682" style="enable-background:new 0 0 682 682;" xml:space="preserve">
<style type="text/css">
	.st0{fill:#969696;}
</style>
<path class="st0" d="M661.8,70.1H20.2C9,70.1,0,79.1,0,90.2v501.5c0,11.1,9.1,20.2,20.2,20.2h641.7c11.1,0,20.2-9.1,20.2-20.2V90.2
	C682,79.1,672.9,70.1,661.8,70.1z M641.7,571.7H40.2V110.3h601.5L641.7,571.7L641.7,571.7z"/>
<path class="st0" d="M110.1,373.7h152.8c11.1,0,20.2-9.1,20.2-20.2V175.8c0-11.1-9.1-20.2-20.2-20.2H110.1
	c-11.1,0-20.2,9.1-20.2,20.2v177.7C89.9,364.6,99,373.7,110.1,373.7z M130.2,196h112.5v137.4H130.2V196z"/>
<path class="st0" d="M353.1,527.6h220.2c11.1,0,20.2-9.1,20.2-20.2V175.8c0-11.1-9.1-20.2-20.2-20.2h-48v-9.4
	c0-11.1-9.1-20.2-20.2-20.2h-83.9c-11.1,0-20.2,9.1-20.2,20.2v9.4h-48c-11.1,0-20.2,9.1-20.2,20.2v331.6
	C332.9,518.5,342,527.6,353.1,527.6z M441.3,166.4h43.6v44.4h-43.6V166.4z M373.2,196h27.8v35c0,11.1,9.1,20.2,20.2,20.2h83.9
	c11.1,0,20.2-9,20.2-20.2v-35h27.8v291.3H373.2V196z"/>
<path class="st0" d="M133.5,451.1h105.8c11.1,0,20.2-9.1,20.2-20.2s-9.1-20.2-20.2-20.2H133.5c-11.1,0-20.2,9.1-20.2,20.2
	C113.5,442.1,122.4,451.1,133.5,451.1z"/>
<path class="st0" d="M268.6,487.3H115.7c-11.1,0-20.2,9.1-20.2,20.2s9.1,20.2,20.2,20.2h152.8c11.1,0,20.2-9.1,20.2-20.2
	C288.7,496.4,279.7,487.3,268.6,487.3z"/>
</svg>
