<?xml version="1.0" encoding="utf-8"?>
<!-- Generator: Adobe Illustrator 25.2.0, SVG Export Plug-In . SVG Version: 6.00 Build 0)  -->
<svg version="1.1" id="Layer_1" xmlns="http://www.w3.org/2000/svg" xmlns:xlink="http://www.w3.org/1999/xlink" x="0px" y="0px"
	 viewBox="0 0 512 512" style="enable-background:new 0 0 512 512;" xml:space="preserve">
<style type="text/css">
	.st0{fill:#FFFFFF;}
</style>
<g>
	<path class="st0" d="M446,40h-46V16c0-8.8-7.2-16-16-16s-16,7.2-16,16v24H144V16c0-8.8-7.2-16-16-16s-16,7.2-16,16v24H66
		C29.6,40,0,69.6,0,106v340c0,36.4,29.6,66,66,66h380c36.4,0,66-29.6,66-66V106C512,69.6,482.4,40,446,40z M66,72h46v16
		c0,8.8,7.2,16,16,16s16-7.2,16-16V72h224v16c0,8.8,7.2,16,16,16s16-7.2,16-16V72h46c18.7,0,34,15.3,34,34v38H32v-38
		C32,87.3,47.3,72,66,72z M446,480H66c-18.7,0-34-15.3-34-34V176h448v270C480,464.7,464.7,480,446,480z"/>
</g>
</svg>
