<?xml version="1.0" encoding="utf-8"?>
<!-- Generator: Adobe Illustrator 25.2.0, SVG Export Plug-In . SVG Version: 6.00 Build 0)  -->
<svg version="1.1" id="Layer_1" xmlns="http://www.w3.org/2000/svg" xmlns:xlink="http://www.w3.org/1999/xlink" x="0px" y="0px"
	 viewBox="0 0 100 125" style="enable-background:new 0 0 100 125;" xml:space="preserve">
<style type="text/css">
	.st0{fill:#969696;}
</style>
<g id="Layer_2_1_">
</g>
<g>
	<path class="st0" d="M85.6,38.8l-21-21.1c-1.7-1.7-3.9-2.6-6.3-2.6H20.5l0,0c-2.4,0-4.6,0.9-6.3,2.6s-2.6,3.9-2.6,6.3v77.1
		c0,4.9,4,8.9,8.9,8.9h58.9c4.9,0,8.9-4,8.9-8.9V45C88.3,42.7,87.3,40.4,85.6,38.8z M61.5,25.5l16.4,16.4H63.2c-1,0-1.7-0.8-1.7-1.7
		V25.5z M79.3,102.2H20.5c-0.6,0-1.1-0.5-1.1-1.1V23.9c0-0.4,0.2-0.7,0.3-0.8c0.2-0.2,0.4-0.3,0.8-0.3h33.1v17.4
		c0,5.3,4.3,9.5,9.5,9.5h17.3v51.4C80.5,101.8,80,102.2,79.3,102.2z"/>
	<path class="st0" d="M38,87.1h-9.3c-0.8,0-1.5,0.7-1.5,1.5v4.7c0,0.8,0.7,1.5,1.5,1.5H38c0.8,0,1.5-0.7,1.5-1.5v-4.7
		C39.5,87.9,39,87.1,38,87.1z"/>
	<path class="st0" d="M38,72.1h-9.3c-0.8,0-1.5,0.7-1.5,1.5v4.7c0,0.8,0.7,1.5,1.5,1.5H38c0.8,0,1.5-0.7,1.5-1.5v-4.7
		C39.5,72.8,39,72.1,38,72.1z"/>
	<path class="st0" d="M38,57h-9.3c-0.8,0-1.5,0.7-1.5,1.5v4.7c0,0.8,0.7,1.5,1.5,1.5H38c0.8,0,1.5-0.7,1.5-1.5v-4.7
		C39.5,57.8,39,57,38,57z"/>
	<path class="st0" d="M54.7,87.1h-9.3c-0.8,0-1.5,0.7-1.5,1.5v4.7c0,0.8,0.7,1.5,1.5,1.5h9.3c0.8,0,1.5-0.7,1.5-1.5v-4.7
		C56.2,87.9,55.5,87.1,54.7,87.1z"/>
	<path class="st0" d="M54.7,72.1h-9.3c-0.8,0-1.5,0.7-1.5,1.5v4.7c0,0.8,0.7,1.5,1.5,1.5h9.3c0.8,0,1.5-0.7,1.5-1.5v-4.7
		C56.2,72.8,55.5,72.1,54.7,72.1z"/>
	<path class="st0" d="M54.7,57h-9.3c-0.8,0-1.5,0.7-1.5,1.5v4.7c0,0.8,0.7,1.5,1.5,1.5h9.3c0.8,0,1.5-0.7,1.5-1.5v-4.7
		C56.2,57.8,55.5,57,54.7,57z"/>
	<path class="st0" d="M71.1,87.1h-9.3c-0.8,0-1.5,0.7-1.5,1.5v4.7c0,0.8,0.7,1.5,1.5,1.5h9.3c0.8,0,1.5-0.7,1.5-1.5v-4.7
		C72.8,87.9,72,87.1,71.1,87.1z"/>
	<path class="st0" d="M71.1,72.1h-9.3c-0.8,0-1.5,0.7-1.5,1.5v4.7c0,0.8,0.7,1.5,1.5,1.5h9.3c0.8,0,1.5-0.7,1.5-1.5v-4.7
		C72.8,72.8,72,72.1,71.1,72.1z"/>
	<path class="st0" d="M71.1,57h-9.3c-0.8,0-1.5,0.7-1.5,1.5v4.7c0,0.8,0.7,1.5,1.5,1.5h9.3c0.8,0,1.5-0.7,1.5-1.5v-4.7
		C72.8,57.8,72,57,71.1,57z"/>
</g>
</svg>
