<?xml version="1.0" encoding="utf-8"?>
<!-- Generator: Adobe Illustrator 25.2.0, SVG Export Plug-In . SVG Version: 6.00 Build 0)  -->
<svg version="1.1" id="Layer_1" xmlns="http://www.w3.org/2000/svg" xmlns:xlink="http://www.w3.org/1999/xlink" x="0px" y="0px"
	 viewBox="0 0 100 125" style="enable-background:new 0 0 100 125;" xml:space="preserve">
<style type="text/css">
	.st0{fill:#969696;}
</style>
<g id="Layer_2_1_">
</g>
<g id="Layer_1_1_">
	<path class="st0" d="M96.2,31.7L68.9,4.2c-2.2-2.2-5.1-3.4-8.2-3.4H11.6l0,0c-3.1,0-6,1.2-8.2,3.4S0,9.3,0,12.4v100.1
		c0,6.4,5.2,11.6,11.6,11.6h76.6c6.4,0,11.6-5.2,11.6-11.6V39.7C99.7,36.6,98.4,33.8,96.2,31.7z M64.8,14.4l21.3,21.3h-19
		c-1.3,0-2.2-1-2.2-2.2V14.4H64.8z M88,114.1H11.6c-0.8,0-1.4-0.7-1.4-1.4V12.3c0-0.5,0.3-0.9,0.4-1c0.3-0.3,0.5-0.4,1-0.4h43v22.6
		c0,6.9,5.6,12.4,12.4,12.4h22.5v66.8C89.6,113.5,89,114.1,88,114.1z"/>
</g>
</svg>
