<?xml version="1.0" encoding="utf-8"?>
<!-- Generator: Adobe Illustrator 25.2.0, SVG Export Plug-In . SVG Version: 6.00 Build 0)  -->
<svg version="1.1" id="Capa_1" xmlns="http://www.w3.org/2000/svg" xmlns:xlink="http://www.w3.org/1999/xlink" x="0px" y="0px"
	 viewBox="0 0 512 512" style="enable-background:new 0 0 512 512;" xml:space="preserve">
<style type="text/css">
	.st0{fill:#969696;}
</style>
<g>
	<g>
		<path class="st0" d="M482,165v-15h15c8.3,0,15-6.7,15-15v-30c0-6.3-3.9-11.9-9.8-14.1l-242-90c-3.4-1.3-7.1-1.3-10.5,0L9.7,91
			C3.9,93.2,0,98.7,0,105v30c0,8.3,6.7,15,15,15h15v15c0,19.6,12.5,36.2,30,42.4v157.2c-17.5,6.2-30,22.9-30,42.4v17.6
			C12.5,430.8,0,447.4,0,467v30c0,8.3,6.7,15,15,15h482c8.3,0,15-6.7,15-15v-30c0-19.6-12.5-36.2-30-42.4V407
			c0-19.6-12.5-36.2-30-42.4V207.4C469.5,201.2,482,184.6,482,165z M45,120H30v-4.6L255,31l227,84.4v4.6h-15H45z M60,407
			c0-8.3,6.7-15,15-15h362c8.3,0,15,6.7,15,15v15H60V407z M90,362V210h30v152H90z M150,362V210h60v152H150z M240,362V210h30v152H240
			z M300,362V210h62v152H300z M392,362V210h30v152H392z M467,452c8.3,0,15,6.7,15,15v15H30v-15c0-8.3,6.7-15,15-15H467z M437,180H75
			c-8.3,0-15-6.7-15-15v-15h392v15C452,173.3,445.3,180,437,180z"/>
	</g>
</g>
</svg>
