<?xml version="1.0" encoding="utf-8"?>
<!-- Generator: Adobe Illustrator 25.2.0, SVG Export Plug-In . SVG Version: 6.00 Build 0)  -->
<svg version="1.1" id="Layer_1" xmlns="http://www.w3.org/2000/svg" xmlns:xlink="http://www.w3.org/1999/xlink" x="0px" y="0px"
	 viewBox="0 0 512 512" style="enable-background:new 0 0 512 512;" xml:space="preserve">
<style type="text/css">
	.st0{fill:#FFFFFF;}
</style>
<path class="st0" d="M497,273.1h-64.3c-7.7,0-14.1,5.8-14.9,13.3L348.6,28.2c-2.1-8-10.4-12.8-18.4-10.6l-60.2,16.1h-62.3
	c-8.3,0-15,6.7-15,15v15.5h-34.3V31.1c0-8.3-6.7-15-15-15H79.3c-8.3,0-15,6.7-15,15v242.1H15c-8.3,0-15,6.7-15,15v192.8
	c0,8.3,6.7,15,15,15h482c8.3,0,15-6.7,15-15V288.1C512,279.8,505.3,273.1,497,273.1z M323.5,50.5l90.8,339l-33.1,8.9l-90.8-339
	L323.5,50.5z M287.1,162.7l64,239h-64V162.7z M222.8,63.7h34.3v337.9h-34.3V63.7z M158.5,94.3h34.3v307.4h-34.3V94.3z M94.3,46.1
	h34.3v355.6H94.3L94.3,46.1z M30,303.1h34.3v98.5H30V303.1z M482,465.9H30v-34.3h452V465.9z M482,401.7h-34.3v-98.5H482V401.7z"/>
</svg>
