<?xml version="1.0" encoding="utf-8"?>
<!-- Generator: Adobe Illustrator 25.2.0, SVG Export Plug-In . SVG Version: 6.00 Build 0)  -->
<svg version="1.1" id="Layer_1" xmlns="http://www.w3.org/2000/svg" xmlns:xlink="http://www.w3.org/1999/xlink" x="0px" y="0px"
	 viewBox="0 0 41 41" style="enable-background:new 0 0 41 41;" xml:space="preserve">
<style type="text/css">
	.st0{display:none;}
	.st1{display:inline;fill:#969696;}
	.st2{display:inline;fill:none;stroke:#969696;stroke-width:2.7;stroke-miterlimit:10;}
	.st3{clip-path:url(#SVGID_2_);fill:none;stroke:#969696;stroke-width:2.7;stroke-linecap:round;stroke-miterlimit:10;}
	.st4{clip-path:url(#SVGID_4_);fill:none;stroke:#969696;stroke-width:2.7;stroke-linecap:round;stroke-miterlimit:10;}
</style>
<g id="surface1" class="st0">
	<path class="st1" d="M35,6c-3.7-3.7-8.8-6-14.5-6S9.7,2.3,6,6s-6,8.8-6,14.5S2.3,31.3,6,35s8.8,6,14.5,6s10.8-2.3,14.5-6
		s6-8.8,6-14.5S38.7,9.7,35,6z M33.2,33.2c-3.3,3.3-7.8,5.3-12.7,5.3s-9.5-2-12.7-5.3C4.5,30,2.5,25.5,2.5,20.5s2-9.5,5.3-12.7
		s7.8-5.3,12.7-5.3s9.5,2,12.7,5.3s5.3,7.8,5.3,12.7S36.5,30,33.2,33.2z"/>
	<path class="st2" d="M25.4,26.5H11.9c-2.2,0-4-1.8-4-4V15c0-0.3,0.2-0.5,0.5-0.5h13.5c2.2,0,4,1.8,4,4V26
		C25.9,26.3,25.7,26.5,25.4,26.5z"/>
	<path class="st2" d="M31,14.8l-4.5,2.9c-0.4,0.2-0.6,0.7-0.6,1.1V22c0,0.5,0.2,0.9,0.6,1.1L31,26c0.9,0.6,2.1-0.1,2.1-1.1v-9.1
		C33.1,14.8,31.9,14.2,31,14.8z"/>
</g>
<g class="st0">
	<path class="st1" d="M16.3,36.2c-3.2,3.2-8.3,3.2-11.5,0c-3.2-3.2-3.2-8.3,0-11.5l8.2-8.2c3.2-3.2,8.3-3.2,11.5,0
		c0.1,0.1,0.2,0.2,0.3,0.3c0,0,0.1,0.1,0.1,0.1c0.1,0.1,0.2,0.3,0.3,0.4c0,0,0,0,0,0c0,0,0,0,0,0c0.4,0.7,0.3,1.7-0.3,2.3
		c-0.6,0.6-1.6,0.7-2.3,0.3c-0.1,0.1-0.6-0.5-0.8-0.7l0,0c-1.7-1.7-4.3-1.7-6,0l-8.2,8.2c-1.7,1.7-1.7,4.3,0,6l0,0
		c1.7,1.7,4.3,1.7,6,0l4.9-4.9c1.7,0.8,3.7,0.9,5.4,0.1L16.3,36.2L16.3,36.2L16.3,36.2z M36.2,16.3L28,24.5c-3.2,3.2-8.3,3.2-11.5,0
		c-0.1-0.1-0.2-0.2-0.3-0.3c0,0-0.1-0.1-0.1-0.1c-0.1-0.1-0.2-0.3-0.3-0.4c0,0,0,0,0,0c0,0,0,0,0,0c-0.4-0.7-0.3-1.7,0.3-2.3
		c0.6-0.6,1.6-0.7,2.3-0.3c0.1-0.1,0.6,0.5,0.8,0.7l0,0c1.7,1.7,4.3,1.7,6,0l8.2-8.2c1.7-1.7,1.7-4.3,0-6v0c-1.7-1.7-4.3-1.7-6,0
		l-4.9,4.9c-1.7-0.8-3.7-0.9-5.4-0.1l7.6-7.6c3.2-3.2,8.3-3.2,11.5,0C39.4,8,39.4,13.2,36.2,16.3L36.2,16.3L36.2,16.3z"/>
</g>
<g>
	<defs>
		<path id="SVGID_1_" d="M13.2,2.8v24.7h25.8V2.8H13.2z M19.7,18.9c-2.6,0-4.7-1.6-4.7-3.5s2.1-3.5,4.7-3.5s4.7,1.6,4.7,3.5
			S22.3,18.9,19.7,18.9z"/>
	</defs>
	<clipPath id="SVGID_2_">
		<use xlink:href="#SVGID_1_"  style="overflow:visible;"/>
	</clipPath>
	<path class="st3" d="M16.7,16.2c0.2-0.3,0.4-0.5,0.6-0.8l9.8-9.8c2-2,5.1-2,7.1,0L35.7,7c2,2,2,5.1,0,7.1l-9.8,9.8
		c-2,2-5.1,2-7.1,0l-1.2-1.2"/>
</g>
<g>
	<defs>
		<path id="SVGID_3_" d="M28.1,38.3V13.6H2.3v24.7H28.1z M21.6,22.2c2.6,0,4.7,1.6,4.7,3.5s-2.1,3.5-4.7,3.5s-4.7-1.6-4.7-3.5
			S19,22.2,21.6,22.2z"/>
	</defs>
	<clipPath id="SVGID_4_">
		<use xlink:href="#SVGID_3_"  style="overflow:visible;"/>
	</clipPath>
	<path class="st4" d="M24.5,24.9c-0.2,0.3-0.4,0.5-0.6,0.8l-9.8,9.8c-2,2-5.1,2-7.1,0l-1.4-1.4c-2-2-2-5.1,0-7.1l9.8-9.8
		c2-2,5.1-2,7.1,0l1.2,1.2"/>
</g>
</svg>
