<?xml version="1.0" encoding="utf-8"?>
<!-- Generator: Adobe Illustrator 25.2.0, SVG Export Plug-In . SVG Version: 6.00 Build 0)  -->
<svg version="1.1" id="Layer_1" xmlns="http://www.w3.org/2000/svg" xmlns:xlink="http://www.w3.org/1999/xlink" x="0px" y="0px"
	 viewBox="0 0 41 41" style="enable-background:new 0 0 41 41;" xml:space="preserve">
<style type="text/css">
	.st0{fill:#969696;}
	.st1{fill:none;stroke:#969696;stroke-width:2.7;stroke-miterlimit:10;}
</style>
<g id="surface1">
	<path class="st0" d="M35,6c-3.7-3.7-8.8-6-14.5-6S9.7,2.3,6,6s-6,8.8-6,14.5S2.3,31.3,6,35s8.8,6,14.5,6s10.8-2.3,14.5-6
		s6-8.8,6-14.5S38.7,9.7,35,6z M33.2,33.2c-3.3,3.3-7.8,5.3-12.7,5.3s-9.5-2-12.7-5.3C4.5,30,2.5,25.5,2.5,20.5s2-9.5,5.3-12.7
		s7.8-5.3,12.7-5.3s9.5,2,12.7,5.3s5.3,7.8,5.3,12.7S36.5,30,33.2,33.2z"/>
</g>
<ellipse class="st1" cx="20.8" cy="20.5" rx="12.6" ry="19.1"/>
<line class="st1" x1="20.8" y1="1.4" x2="20.8" y2="39.6"/>
<line class="st1" x1="1.7" y1="20.5" x2="39.9" y2="20.5"/>
</svg>
