<?xml version="1.0" encoding="utf-8"?>
<!-- Generator: Adobe Illustrator 25.2.0, SVG Export Plug-In . SVG Version: 6.00 Build 0)  -->
<svg version="1.1" id="Layer_1" xmlns="http://www.w3.org/2000/svg" xmlns:xlink="http://www.w3.org/1999/xlink" x="0px" y="0px"
	 viewBox="0 0 41 41" style="enable-background:new 0 0 41 41;" xml:space="preserve">
<style type="text/css">
	.st0{fill:none;stroke:#969696;stroke-width:2.7;stroke-linecap:round;stroke-linejoin:round;stroke-miterlimit:10;}
	.st1{fill:#969696;}
</style>
<path class="st0" d="M23.8,10.6v-9l11.6,11.7h-8.9C25,13.3,23.8,12.1,23.8,10.6z"/>
<path class="st1" d="M31.8,28c-0.4-0.7-1.8-1.1-4-1.1c-0.9,0-1.7,0.1-2.6,0.2c-0.8-0.4-1.4-0.9-1.9-1.3c-1.4-1.1-2.5-2.9-3.3-5.3
	c0.2-1,0.3-2.5,0.3-4.3v-0.7c0-0.1,0-0.1,0-0.2c0,0,0.1-0.1,0.1-0.2c0.1-0.7,0.1-1.2-0.2-1.5c-0.2-0.2-0.4-0.3-0.8-0.3h-0.5
	c-0.5,0-0.8,0.3-0.9,0.9c-0.2,0.7-0.2,1.7-0.1,2.9c0.1,1.2,0.3,2.4,0.7,3.6c-0.5,1.9-1.3,3.8-2.3,5.9c-0.8,1.7-1.6,3.1-2.4,4.4
	c0,0,0-0.1,0-0.1c-0.1-0.2-0.3-0.3-0.5-0.1c-1.3,0.7-2.3,1.4-3,2.2S9.2,34.2,9,34.8c-0.1,0.4,0,0.7,0.1,0.8c0.1,0.1,0.1,0.1,0.1,0.1
	L9.8,36c0.2,0.1,0.4,0.2,0.6,0.2c1.3,0,3.1-2,5.4-5.9c2.6-0.9,5.5-1.5,8.8-1.9c0.9,0.5,1.9,0.9,2.9,1.2c1,0.3,1.9,0.4,2.6,0.4
	c1,0,1.5-0.3,1.6-0.9v0l0,0c0,0,0,0,0,0C32.1,28.7,32,28.3,31.8,28z M10.4,35c0.2-0.4,0.6-1,1.1-1.7c0.5-0.7,1.2-1.3,2-1.9
	C12.2,33.4,11.2,34.6,10.4,35z M19.3,14.3L19.3,14.3C19.3,14.3,19.4,14.3,19.3,14.3c0.2,0.1,0.3,0.4,0.3,0.7c0,0,0,0,0,0s0,0,0,0
	s0,0,0,0c0,0.1-0.1,0.1-0.1,0.2c-0.1,0.6-0.2,0.9-0.2,1c-0.1,0.6-0.1,0.9-0.2,1C19.1,15.9,19.1,15,19.3,14.3z M16.5,29.2
	c0.2-0.4,0.6-1,1-1.9c0.8-1.7,1.5-3.1,1.9-4.4c0.8,1.6,1.7,2.9,2.9,4c0.1,0.1,0.2,0.2,0.4,0.3s0.3,0.2,0.3,0.2
	C20.7,27.8,18.6,28.4,16.5,29.2z M30.7,28.9c-0.7,0-1.6-0.2-2.8-0.6c1.7,0,2.8,0.2,3.1,0.5c0,0,0,0.1,0,0.1
	C31,28.9,30.9,28.9,30.7,28.9z"/>
<path class="st0" d="M35.4,13.8v22.9c0,1.5-1.2,2.7-2.7,2.7H8.3c-1.5,0-2.7-1.2-2.7-2.7V4.3c0-1.5,1.2-2.7,2.7-2.7h15"/>
</svg>
