<?xml version="1.0" encoding="utf-8"?>
<!-- Generator: Adobe Illustrator 25.2.0, SVG Export Plug-In . SVG Version: 6.00 Build 0)  -->
<svg version="1.1" id="Layer_1" xmlns="http://www.w3.org/2000/svg" xmlns:xlink="http://www.w3.org/1999/xlink" x="0px" y="0px"
	 viewBox="0 0 1792 1792" style="enable-background:new 0 0 1792 1792;" xml:space="preserve">
<style type="text/css">
	.st0{fill:#969696;}
</style>
<path class="st0" d="M1596,380c18.7,18.7,34.7,44,48,76s20,61.3,20,88v1152c0,26.7-9.3,49.3-28,68s-41.3,28-68,28H224
	c-26.7,0-49.3-9.3-68-28s-28-41.3-28-68V96c0-26.7,9.3-49.3,28-68s41.3-28,68-28h896c26.7,0,56,6.7,88,20s57.3,29.3,76,48L1596,380z
	 M1152,136v376h376c-6.7-19.3-14-33-22-41l-313-313C1185,150,1171.3,142.7,1152,136z M1536,1664V640h-416c-26.7,0-49.3-9.3-68-28
	s-28-41.3-28-68V128H256v1536H1536z M1022,1071c22,17.3,50,36,84,56c39.3-4.7,78.3-7,117-7c98,0,157,16.3,177,49
	c10.7,14.7,11.3,32,2,52c0,0.7-0.3,1.3-1,2l-2,2v1c-4,25.3-27.7,38-71,38c-32,0-70.3-6.7-115-20s-88-31-130-53
	c-147.3,16-278,43.7-392,83c-102,174.7-182.7,262-242,262c-10,0-19.3-2.3-28-7l-24-12c-0.7-0.7-2.7-2.3-6-5c-6.7-6.7-8.7-18.7-6-36
	c6-26.7,24.7-57.2,56-91.5s75.3-66.5,132-96.5c9.3-6,17-4,23,6c1.3,1.3,2,2.7,2,4c34.7-56.7,70.3-122.3,107-197
	c45.3-90.7,80-178,104-262c-16-54.7-26.2-107.8-30.5-159.5s-2.2-94.2,6.5-127.5c7.3-26.7,21.3-40,42-40h22c15.3,0,27,5,35,15
	c12,14,15,36.7,9,68c-1.3,4-2.7,6.7-4,8c0.7,2,1,4.7,1,8v30c-1.3,82-6,146-14,192C912.7,942.3,961.3,1021.7,1022,1071z M446,1482
	c34.7-16,80.3-68.7,137-158c-34,26.7-63.2,54.7-87.5,84C471.2,1437.3,454.7,1462,446,1482z M844,562c-10,28-10.7,72-2,132
	c0.7-4.7,3-19.3,7-44c0-2,2.3-16.3,7-43c0.7-2.7,2-5.3,4-8c-0.7-0.7-1-1.3-1-2s-0.2-1.2-0.5-1.5s-0.5-0.8-0.5-1.5
	c-0.7-14.7-5-26.7-13-36c0,0.7-0.3,1.3-1,2V562z M720,1223c90-36,184.7-63,284-81c-1.3-0.7-5.7-3.8-13-9.5s-12.7-10.2-16-13.5
	c-50.7-44.7-93-103.3-127-176c-18,57.3-45.7,123-83,197C745,1177.3,730,1205,720,1223z M1366,1207c-16-16-62.7-24-140-24
	c50.7,18.7,92,28,124,28c9.3,0,15.3-0.3,18-1C1368,1209.3,1367.3,1208.3,1366,1207z"/>
</svg>
