<?xml version="1.0" encoding="utf-8"?>
<!-- Generator: Adobe Illustrator 25.2.0, SVG Export Plug-In . SVG Version: 6.00 Build 0)  -->
<svg version="1.1" id="Layer_1" xmlns="http://www.w3.org/2000/svg" xmlns:xlink="http://www.w3.org/1999/xlink" x="0px" y="0px"
	 viewBox="0 0 41 41" style="enable-background:new 0 0 41 41;" xml:space="preserve">
<style type="text/css">
	.st0{fill:none;stroke:#969696;stroke-width:2.7;stroke-linecap:round;stroke-linejoin:round;stroke-miterlimit:10;}
	.st1{fill:#969696;}
</style>
<path class="st0" d="M23.8,10.6v-9l11.6,11.7h-8.9C25,13.3,23.8,12.1,23.8,10.6z"/>
<path class="st1" d="M26.6,26.9H20c-0.2,0-0.5-0.2-0.5-0.5v-6.6c0-0.2-0.2-0.5-0.5-0.5c-3.9,0.2-7.1,3.5-7.1,7.5
	c0,4.1,3.5,7.6,7.6,7.5c4-0.1,7.2-3.2,7.5-7.1C27,27,26.9,26.9,26.6,26.9z"/>
<path class="st1" d="M22,17.4c-0.2,0-0.5,0.2-0.5,0.5v6.6c0,0.2,0.2,0.5,0.5,0.5h6.6c0.2,0,0.5-0.2,0.5-0.5
	C28.7,20.6,25.7,17.7,22,17.4z"/>
<path class="st0" d="M35.4,13.8v22.9c0,1.5-1.2,2.7-2.7,2.7H8.3c-1.5,0-2.7-1.2-2.7-2.7V4.3c0-1.5,1.2-2.7,2.7-2.7h15"/>
</svg>
