<?xml version="1.0" encoding="utf-8"?>
<!-- Generator: Adobe Illustrator 25.2.0, SVG Export Plug-In . SVG Version: 6.00 Build 0)  -->
<svg version="1.1" id="Layer_1" xmlns="http://www.w3.org/2000/svg" xmlns:xlink="http://www.w3.org/1999/xlink" x="0px" y="0px"
	 viewBox="0 0 512 512" style="enable-background:new 0 0 512 512;" xml:space="preserve">
<style type="text/css">
	.st0{fill:#FFFFFF;}
</style>
<g>
	<g>
		<path class="st0" d="M372.3,50.8H28.8C12.9,50.8,0,63.7,0,79.6v206.1c0,15.9,12.9,28.8,28.8,28.8h22.3v76.7
			c0,4.9,2.9,9.3,7.5,11.2c1.5,0.6,3.1,0.9,4.6,0.9c3.1,0,6.2-1.2,8.5-3.5l85.3-85.2h17.1c6.7,0,12.1-5.4,12.1-12.1
			c0-6.7-5.4-12.1-12.1-12.1c0,0-22.7,0-22.9,0c-2.8,0.2-5.6,1.3-7.7,3.5L75.3,362c0,0,0-60.4-0.1-60.7c-0.5-6.2-5.7-11-12-11H28.8
			c-2.6,0-4.7-2.1-4.7-4.7V79.6c0-2.6,2.1-4.7,4.7-4.7h343.5c2.6,0,4.7,2.1,4.7,4.7v79.1c0,6.7,5.4,12.1,12.1,12.1
			s12.1-5.4,12.1-12.1V79.6C401.1,63.7,388.2,50.8,372.3,50.8z"/>
	</g>
</g>
<g>
	<g>
		<path class="st0" d="M483.2,198.5H242.8c-15.9,0-28.8,12.9-28.8,28.8v140.6c0,15.9,12.9,28.8,28.8,28.8h150.5l61,61
			c2.3,2.3,5.4,3.5,8.5,3.5c1.6,0,3.1-0.3,4.6-0.9c4.5-1.9,7.5-6.3,7.5-11.2v-52.4h8.3c15.9,0,28.8-12.9,28.8-28.8V227.3
			C512,211.4,499.1,198.5,483.2,198.5z M487.8,367.9c0,2.6-2.1,4.7-4.7,4.7h-20.4c-6.4,0-11.6,4.9-12,11.1c0,0.3-0.1,36.3-0.1,36.3
			l-43.9-43.9c0,0-0.1-0.1-0.1-0.1c-0.2-0.2-0.3-0.3-0.5-0.4c-2.1-1.9-4.9-3-8-3H242.8c-2.6,0-4.7-2.1-4.7-4.7V227.3
			c0-2.6,2.1-4.7,4.7-4.7h240.4c2.6,0,4.7,2.1,4.7,4.7V367.9z"/>
	</g>
</g>
<g>
	<g>
		<path class="st0" d="M363,285.5c-6.7,0-12.1,5.4-12.1,12.1s5.4,12.1,12.1,12.1c6.7,0,12.1-5.4,12.1-12.1S369.6,285.5,363,285.5z"
			/>
	</g>
</g>
<g>
	<g>
		<path class="st0" d="M310.5,130.6H90.6c-6.7,0-12.1,5.4-12.1,12.1s5.4,12.1,12.1,12.1h219.8c6.7,0,12.1-5.4,12.1-12.1
			S317.1,130.6,310.5,130.6z"/>
	</g>
</g>
<g>
	<g>
		<path class="st0" d="M174.1,210.5H90.7c-6.7,0-12.1,5.4-12.1,12.1s5.4,12.1,12.1,12.1h83.4c6.7,0,12.1-5.4,12.1-12.1
			S180.7,210.5,174.1,210.5z"/>
	</g>
</g>
<g>
	<g>
		<path class="st0" d="M306.8,285.5c-6.7,0-12.1,5.4-12.1,12.1s5.4,12.1,12.1,12.1c6.7,0,12.1-5.4,12.1-12.1
			S313.5,285.5,306.8,285.5z"/>
	</g>
</g>
<g>
	<g>
		<path class="st0" d="M419.1,285.5c-6.7,0-12.1,5.4-12.1,12.1s5.4,12.1,12.1,12.1c6.7,0,12.1-5.4,12.1-12.1
			S425.7,285.5,419.1,285.5z"/>
	</g>
</g>
</svg>
