<?xml version="1.0" encoding="utf-8"?>
<!-- Generator: Adobe Illustrator 25.2.0, SVG Export Plug-In . SVG Version: 6.00 Build 0)  -->
<svg version="1.1" id="Layer_1" xmlns="http://www.w3.org/2000/svg" xmlns:xlink="http://www.w3.org/1999/xlink" x="0px" y="0px"
	 viewBox="0 0 41 41" style="enable-background:new 0 0 41 41;" xml:space="preserve">
<style type="text/css">
	.st0{fill:none;stroke:#969696;stroke-width:2.7;stroke-linecap:round;stroke-linejoin:round;stroke-miterlimit:10;}
	.st1{fill:none;stroke:#969696;stroke-width:2.7;stroke-linecap:round;stroke-miterlimit:10;}
	.st2{fill:none;stroke:#969696;stroke-width:2.7;stroke-miterlimit:10;}
</style>
<path class="st0" d="M14.5,13.3H5.6L17.2,1.6v9C17.2,12.1,16,13.3,14.5,13.3z"/>
<line class="st1" x1="11.5" y1="20.5" x2="21.8" y2="20.5"/>
<line class="st1" x1="11.5" y1="26.5" x2="17.2" y2="26.5"/>
<line class="st1" x1="11.5" y1="32.5" x2="15.5" y2="32.5"/>
<path class="st0" d="M35.4,18.6v18.1c0,1.5-1.2,2.7-2.7,2.7H8.3c-1.5,0-2.7-1.2-2.7-2.7V13.8"/>
<path class="st0" d="M35.4,18.6"/>
<path class="st0" d="M35.4,9.6"/>
<path class="st0" d="M17.7,1.6h15c1.5,0,2.7,1.2,2.7,2.7v4.9"/>
<rect x="23.6" y="12.4" transform="matrix(0.7071 0.7071 -0.7071 0.7071 22.6284 -13.4433)" class="st2" width="7.8" height="16.4"/>
<path class="st2" d="M38.9,12.9l-3.6-3.6c-0.5-0.5-1.4-0.5-1.9,0l-1.8,1.8c-0.5,0.5-0.5,1.4,0,1.9l3.6,3.6c0.5,0.5,1.4,0.5,1.9,0
	l1.8-1.8C39.4,14.3,39.4,13.4,38.9,12.9z"/>
<polygon class="st0" points="16,32.1 23.5,30.1 18,24.6 "/>
</svg>
