<?xml version="1.0" encoding="utf-8"?>
<!-- Generator: Adobe Illustrator 25.2.0, SVG Export Plug-In . SVG Version: 6.00 Build 0)  -->
<svg version="1.1" id="Layer_1" xmlns="http://www.w3.org/2000/svg" xmlns:xlink="http://www.w3.org/1999/xlink" x="0px" y="0px"
	 viewBox="0 0 100 125" style="enable-background:new 0 0 100 125;" xml:space="preserve">
<style type="text/css">
	.st0{fill:#969696;}
</style>
<g id="Layer_2_1_">
</g>
<g>
	<path class="st0" d="M90.2,35.7L66.5,12C64.6,10,62.1,9,59.4,9H16.8l0,0c-2.7,0-5.2,1-7.1,2.9s-2.9,4.4-2.9,7.1v86.9
		c0,5.5,4.5,10,10,10h66.4c5.5,0,10-4.5,10-10V42.8C93.2,40.1,92.1,37.7,90.2,35.7z M62.9,20.9l18.5,18.5H64.8
		c-1.1,0-1.9-0.9-1.9-1.9V20.9z M83.1,107.3H16.8c-0.7,0-1.2-0.6-1.2-1.2v-87c0-0.5,0.2-0.8,0.3-0.9c0.2-0.2,0.5-0.3,0.9-0.3h37.3
		v19.6c0,6,4.8,10.7,10.7,10.7h19.5v57.9C84.4,106.7,83.9,107.3,83.1,107.3z"/>
	<path class="st0" d="M73.8,90.3H26.1c-0.9,0-1.7,0.8-1.7,1.7v5.3c0,0.9,0.8,1.7,1.7,1.7h47.9c0.9,0,1.7-0.8,1.7-1.7V92
		C75.6,91.1,74.8,90.3,73.8,90.3z"/>
	<path class="st0" d="M73.8,73.4H26.1c-0.9,0-1.7,0.8-1.7,1.7v5.3c0,0.9,0.8,1.7,1.7,1.7h47.9c0.9,0,1.7-0.8,1.7-1.7v-5.3
		C75.6,74.1,74.8,73.4,73.8,73.4z"/>
	<path class="st0" d="M73.8,56.4H26.1c-0.9,0-1.7,0.8-1.7,1.7v5.3c0,0.9,0.8,1.7,1.7,1.7h47.9c0.9,0,1.7-0.8,1.7-1.7V58
		C75.6,57.1,74.8,56.4,73.8,56.4z"/>
</g>
</svg>
