<?xml version="1.0" encoding="utf-8"?>
<!-- Generator: Adobe Illustrator 25.2.0, SVG Export Plug-In . SVG Version: 6.00 Build 0)  -->
<svg version="1.1" id="Layer_1" xmlns="http://www.w3.org/2000/svg" xmlns:xlink="http://www.w3.org/1999/xlink" x="0px" y="0px"
	 viewBox="0 0 100 125" style="enable-background:new 0 0 100 125;" xml:space="preserve">
<style type="text/css">
	.st0{fill:#969696;}
</style>
<g id="Layer_2_1_">
</g>
<g>
	<path class="st0" d="M96.1,31.7L68.8,4.3c-2.2-2.3-5.1-3.5-8.2-3.5H11.5l0,0c-3.1,0-6,1.2-8.2,3.3S0,9.3,0,12.4v100.2
		c0,6.3,5.2,11.5,11.5,11.5h76.5c6.3,0,11.5-5.2,11.5-11.5V39.8C99.6,36.7,98.3,34,96.1,31.7z M64.7,14.6L86,35.9H66.9
		c-1.3,0-2.2-1-2.2-2.2V14.6z M88,114.2H11.5c-0.8,0-1.4-0.7-1.4-1.4V12.5c0-0.6,0.2-0.9,0.3-1c0.2-0.2,0.6-0.3,1-0.3h43v22.6
		c0,6.9,5.5,12.3,12.3,12.3h22.5v66.7C89.5,113.5,88.9,114.2,88,114.2z"/>
	<path class="st0" d="M77.2,94.6h-55c-1,0-2,0.9-2,2v6.1c0,1,0.9,2,2,2h55.2c1,0,2-0.9,2-2v-6.1C79.3,95.5,78.4,94.6,77.2,94.6z"/>
	<path class="st0" d="M77.2,75.1h-55c-1,0-2,0.9-2,2v6.1c0,1,0.9,2,2,2h55.2c1,0,2-0.9,2-2v-6.1C79.3,75.9,78.4,75.1,77.2,75.1z"/>
	<path class="st0" d="M77.2,55.5h-55c-1,0-2,0.9-2,2v6.1c0,1,0.9,2,2,2h55.2c1,0,2-0.9,2-2v-6.2C79.3,56.3,78.4,55.5,77.2,55.5z"/>
</g>
</svg>
