<?xml version="1.0" encoding="utf-8"?>
<!-- Generator: Adobe Illustrator 25.2.0, SVG Export Plug-In . SVG Version: 6.00 Build 0)  -->
<svg version="1.1" id="Layer_1" xmlns="http://www.w3.org/2000/svg" xmlns:xlink="http://www.w3.org/1999/xlink" x="0px" y="0px"
	 viewBox="0 0 41 41" style="enable-background:new 0 0 41 41;" xml:space="preserve">
<style type="text/css">
	.st0{fill:#969696;}
</style>
<g id="surface1">
	<path class="st0" d="M35,6c-3.7-3.7-8.8-6-14.5-6S9.7,2.3,6,6s-6,8.8-6,14.5S2.3,31.3,6,35s8.8,6,14.5,6s10.8-2.3,14.5-6
		s6-8.8,6-14.5S38.7,9.7,35,6z M33.2,33.2c-3.3,3.3-7.8,5.3-12.7,5.3s-9.5-2-12.7-5.3C4.5,30,2.5,25.5,2.5,20.5s2-9.5,5.3-12.7
		s7.8-5.3,12.7-5.3s9.5,2,12.7,5.3s5.3,7.8,5.3,12.7S36.5,30,33.2,33.2z"/>
	<path class="st0" d="M31.9,19c-0.1-0.1-0.2-0.3-0.4-0.5c0,0,0,0-0.1-0.1c-0.1-0.1-0.3-0.2-0.5-0.3L23.7,14c0,0,0,0,0-0.1l-7.3-4.2
		c-0.6-0.4-1.4-0.4-2.1-0.3c-0.7,0.2-1.3,0.6-1.7,1.3c-0.1,0.2-0.2,0.4-0.3,0.6c0,0.1,0,0.3-0.1,0.5c0,0.1,0,0.1,0,0.2v16.8
		c0,0.7,0.3,1.4,0.8,1.9c0.5,0.5,1.2,0.8,1.9,0.8c0.2,0,0.5,0,0.8-0.1c0.2-0.1,0.5-0.2,0.7-0.3l7.2-4.1l0.1,0l7.2-4.1
		c0.1,0,0.1-0.1,0.1-0.1c0.6-0.4,1-1,1.2-1.6C32.4,20.4,32.3,19.7,31.9,19z M29.8,20.5C29.8,20.6,29.7,20.6,29.8,20.5l-0.1,0.1
		l-7.2,4.2l-0.1,0.1L15.2,29c-0.1,0-0.1,0-0.1,0c0,0-0.1,0-0.1,0.1h0c-0.1,0-0.1-0.1-0.1-0.1c0,0,0-0.1,0-0.1V12
		c0-0.1,0.1-0.1,0.1-0.1c0.1,0,0.1,0,0.1,0l7.2,4.1l0,0l7.3,4.2l0.1,0.1C29.8,20.5,29.8,20.5,29.8,20.5z"/>
</g>
</svg>
