<?xml version="1.0" encoding="utf-8"?>
<!-- Generator: Adobe Illustrator 25.2.0, SVG Export Plug-In . SVG Version: 6.00 Build 0)  -->
<svg version="1.1" id="Layer_1" xmlns="http://www.w3.org/2000/svg" xmlns:xlink="http://www.w3.org/1999/xlink" x="0px" y="0px"
	 viewBox="0 0 100 125" style="enable-background:new 0 0 100 125;" xml:space="preserve">
<style type="text/css">
	.st0{fill:#969696;}
</style>
<g id="Layer_2_1_">
</g>
<g>
	<path class="st0" d="M85.7,39.7l-21-21.1C63,16.9,60.8,16,58.4,16H20.6l0,0c-2.4,0-4.6,0.9-6.3,2.6s-2.6,3.9-2.6,6.3V102
		c0,4.9,4,8.9,8.9,8.9h58.9c4.9,0,8.9-4,8.9-8.9V46C88.4,43.6,87.4,41.4,85.7,39.7z M61.5,26.5l16.4,16.4H63.2c-1,0-1.7-0.8-1.7-1.7
		V26.5z M79.4,103.2H20.6c-0.6,0-1.1-0.5-1.1-1.1V24.9c0-0.4,0.2-0.7,0.3-0.8c0.2-0.2,0.4-0.3,0.8-0.3h33.1v17.4
		c0,5.3,4.3,9.5,9.5,9.5h17.3v51.4C80.6,102.7,80.1,103.2,79.4,103.2z"/>
	<path class="st0" d="M28.5,50.3h18.9c1,0,1.6-1.1,1.1-2L44,40.6c-0.5-0.8-1.7-0.8-2.2,0l-2.2,3.7L35.8,38c-0.5-0.8-1.7-0.8-2.2,0
		l-6.1,10.2C26.9,49.1,27.5,50.3,28.5,50.3z"/>
	<circle class="st0" cx="41.2" cy="33.9" r="3.1"/>
	<path class="st0" d="M71.2,88.1H28.8c-0.8,0-1.5,0.7-1.5,1.5v4.7c0,0.8,0.7,1.5,1.5,1.5h42.5c0.8,0,1.5-0.7,1.5-1.5v-4.7
		C72.8,88.8,72.1,88.1,71.2,88.1z"/>
	<path class="st0" d="M71.2,73.1H28.8c-0.8,0-1.5,0.7-1.5,1.5v4.7c0,0.8,0.7,1.5,1.5,1.5h42.5c0.8,0,1.5-0.7,1.5-1.5v-4.7
		C72.8,73.7,72.1,73.1,71.2,73.1z"/>
	<path class="st0" d="M71.2,58H28.8c-0.8,0-1.5,0.7-1.5,1.5v4.7c0,0.8,0.7,1.5,1.5,1.5h42.5c0.8,0,1.5-0.7,1.5-1.5v-4.7
		C72.8,58.7,72.1,58,71.2,58z"/>
</g>
</svg>
