<?xml version="1.0" encoding="utf-8"?>
<!-- Generator: Adobe Illustrator 25.2.0, SVG Export Plug-In . SVG Version: 6.00 Build 0)  -->
<svg version="1.1" id="Layer_1" xmlns="http://www.w3.org/2000/svg" xmlns:xlink="http://www.w3.org/1999/xlink" x="0px" y="0px"
	 viewBox="0 0 100 125" style="enable-background:new 0 0 100 125;" xml:space="preserve">
<style type="text/css">
	.st0{fill:#969696;}
</style>
<g id="Layer_2_1_">
</g>
<g id="Layer_1_1_">
	<g>
		<path class="st0" d="M96.1,31.8L69,4.5c-2.2-2.2-5-3.4-8.2-3.4H11.9l0,0c-3.1,0-6,1.2-8.2,3.4s-3.4,5-3.4,8.2v99.8
			c0,6.3,5.2,11.5,11.5,11.5h76.2c6.3,0,11.5-5.2,11.5-11.5V39.9C99.6,36.8,98.3,34,96.1,31.8z M64.8,14.7L86,35.9H67
			c-1.3,0-2.2-1-2.2-2.2V14.7z M88,113.9H11.9c-0.8,0-1.4-0.6-1.4-1.4V12.6c0-0.5,0.3-0.9,0.4-1c0.3-0.3,0.5-0.4,1-0.4h9.8v10.7
			h10.9V11.2h22.1v22.5C54.7,40.6,60.3,46,67,46h22.4v66.5C89.5,113.3,88.9,113.9,88,113.9z"/>
		<rect x="32.6" y="21.9" class="st0" width="10.9" height="10.9"/>
		<rect x="21.7" y="32.7" class="st0" width="10.9" height="10.9"/>
		<rect x="32.6" y="43.5" class="st0" width="10.9" height="10.9"/>
		<rect x="21.7" y="54.4" class="st0" width="10.9" height="10.9"/>
		<rect x="32.6" y="65.2" class="st0" width="10.9" height="10.9"/>
		<rect x="21.7" y="76" class="st0" width="10.9" height="10.9"/>
		<rect x="32.6" y="86.8" class="st0" width="10.9" height="10.9"/>
	</g>
</g>
</svg>
