<?xml version="1.0" encoding="utf-8"?>
<!-- Generator: Adobe Illustrator 25.2.0, SVG Export Plug-In . SVG Version: 6.00 Build 0)  -->
<svg version="1.1" xmlns="http://www.w3.org/2000/svg" xmlns:xlink="http://www.w3.org/1999/xlink" x="0px" y="0px"
	 viewBox="0 0 100 125" style="enable-background:new 0 0 100 125;" xml:space="preserve">
<style type="text/css">
	.st0{fill:#969696;}
</style>
<g id="Layer_2">
</g>
<g id="Layer_1">
	<g>
		<path class="st0" d="M85.7,42.3l-21-21.1c-1.7-1.7-3.9-2.6-6.3-2.6H20.6l0,0c-2.4,0-4.6,0.9-6.3,2.6s-2.6,3.9-2.6,6.3v77.1
			c0,4.9,4,8.9,8.9,8.9h58.9c4.9,0,8.9-4,8.9-8.9v-56C88.4,46.2,87.4,44,85.7,42.3z M61.5,29.1l16.4,16.4H63.2c-1,0-1.7-0.8-1.7-1.7
			V29.1z M79.4,105.8H20.6c-0.6,0-1.1-0.5-1.1-1.1V27.5c0-0.4,0.2-0.7,0.3-0.8c0.2-0.2,0.4-0.3,0.8-0.3h7.6v8.3h8.4v-8.3h17.1v17.4
			c0,5.3,4.3,9.5,9.5,9.5h17.3v51.4C80.6,105.3,80.1,105.8,79.4,105.8z"/>
		<rect x="36.6" y="34.7" class="st0" width="8.4" height="8.4"/>
		<rect x="28.2" y="43" class="st0" width="8.4" height="8.4"/>
		<rect x="36.6" y="51.4" class="st0" width="8.4" height="8.4"/>
		<rect x="28.2" y="59.8" class="st0" width="8.4" height="8.4"/>
		<rect x="36.6" y="68.1" class="st0" width="8.4" height="8.4"/>
		<rect x="28.2" y="76.5" class="st0" width="8.4" height="8.4"/>
		<rect x="36.6" y="84.8" class="st0" width="8.4" height="8.4"/>
	</g>
</g>
</svg>
