<?xml version="1.0" encoding="utf-8"?>
<!-- Generator: Adobe Illustrator 25.2.0, SVG Export Plug-In . SVG Version: 6.00 Build 0)  -->
<svg version="1.1" id="Layer_1" xmlns="http://www.w3.org/2000/svg" xmlns:xlink="http://www.w3.org/1999/xlink" x="0px" y="0px"
	 viewBox="0 0 41 41" style="enable-background:new 0 0 41 41;" xml:space="preserve">
<style type="text/css">
	.st0{fill:#969696;}
	.st1{fill:none;stroke:#969696;stroke-width:2.7;stroke-miterlimit:10;}
</style>
<g id="surface1">
	<path class="st0" d="M35,6c-3.7-3.7-8.8-6-14.5-6S9.7,2.3,6,6s-6,8.8-6,14.5S2.3,31.3,6,35s8.8,6,14.5,6s10.8-2.3,14.5-6
		s6-8.8,6-14.5S38.7,9.7,35,6z M33.2,33.2c-3.3,3.3-7.8,5.3-12.7,5.3s-9.5-2-12.7-5.3C4.5,30,2.5,25.5,2.5,20.5s2-9.5,5.3-12.7
		s7.8-5.3,12.7-5.3s9.5,2,12.7,5.3s5.3,7.8,5.3,12.7S36.5,30,33.2,33.2z"/>
	<path class="st1" d="M25.4,26.5H11.9c-2.2,0-4-1.8-4-4V15c0-0.3,0.2-0.5,0.5-0.5h13.5c2.2,0,4,1.8,4,4V26
		C25.9,26.3,25.7,26.5,25.4,26.5z"/>
	<path class="st1" d="M31,14.8l-4.5,2.9c-0.4,0.2-0.6,0.7-0.6,1.1v3.2c0,0.5,0.2,0.9,0.6,1.1l4.5,2.9c0.9,0.6,2.1-0.1,2.1-1.1v-9.1
		C33.1,14.8,31.9,14.2,31,14.8z"/>
</g>
</svg>
