<?xml version="1.0" encoding="utf-8"?>
<!-- Generator: Adobe Illustrator 25.2.0, SVG Export Plug-In . SVG Version: 6.00 Build 0)  -->
<svg version="1.1" id="Layer_1" xmlns="http://www.w3.org/2000/svg" xmlns:xlink="http://www.w3.org/1999/xlink" x="0px" y="0px"
	 viewBox="0 0 41 41" style="enable-background:new 0 0 41 41;" xml:space="preserve">
<style type="text/css">
	.st0{fill:none;stroke:#969696;stroke-width:2.7;stroke-linecap:round;stroke-miterlimit:10;}
	.st1{fill:#969696;}
</style>
<path class="st0" d="M7.7,23.6h-2c-0.7,0-1.3-0.6-1.3-1.4V9c0-0.7,0.6-1.3,1.3-1.3H28c0.7,0,1.4,0.6,1.4,1.3v5.1"/>
<path class="st0" d="M29.8,29h-9.9c-0.7,0-1.4-0.6-1.4-1.3v-8.9c0-0.7,0.6-1.4,1.4-1.4h15.4c0.7,0,1.4,0.6,1.4,1.4v8.9
	c0,0.7-0.6,1.3-1.4,1.3h-1"/>
<circle class="st1" cx="27.6" cy="23.3" r="1.4"/>
<circle class="st1" cx="31.9" cy="23.3" r="1.4"/>
<circle class="st1" cx="23.3" cy="23.3" r="1.4"/>
<line class="st0" x1="9.6" y1="13" x2="24.1" y2="13"/>
<line class="st0" x1="9.6" y1="18.3" x2="15" y2="18.3"/>
<line class="st0" x1="7.7" y1="23.6" x2="7.7" y2="29.5"/>
<line class="st0" x1="13.8" y1="23.6" x2="7.7" y2="29.5"/>
<line class="st0" x1="34.3" y1="29" x2="34.3" y2="33.4"/>
<line class="st0" x1="29.8" y1="29" x2="34.3" y2="33.4"/>
<line class="st0" x1="13.8" y1="23.6" x2="15" y2="23.6"/>
</svg>
