<?xml version="1.0" encoding="utf-8"?>
<!-- Generator: Adobe Illustrator 25.2.0, SVG Export Plug-In . SVG Version: 6.00 Build 0)  -->
<svg version="1.1" xmlns="http://www.w3.org/2000/svg" xmlns:xlink="http://www.w3.org/1999/xlink" x="0px" y="0px"
	 viewBox="0 0 100 125" style="enable-background:new 0 0 100 125;" xml:space="preserve">
<style type="text/css">
	.st0{fill:#969696;}
</style>
<g id="Layer_2">
</g>
<g id="Layer_1">
	<g>
		<path d="M5273.1,2400.1v-2c0-2.8-5-4-9.7-4s-9.7,1.3-9.7,4v2c0,1.8,0.7,3.6,2,4.9l5,4.9c0.3,0.3,0.4,0.6,0.4,1v6.4
			c0,0.4,0.2,0.7,0.6,0.8l2.9,0.9c0.5,0.1,1-0.2,1-0.8v-7.2c0-0.4,0.2-0.7,0.4-1l5.1-5C5272.4,2403.7,5273.1,2401.9,5273.1,2400.1z
			 M5263.4,2400c-4.8,0-7.4-1.3-7.5-1.8l0,0c0.1-0.5,2.7-1.8,7.5-1.8s7.3,1.3,7.5,1.8C5270.7,2398.7,5268.2,2400,5263.4,2400z"/>
		<path d="M5268.4,2410.3c-0.6,0-1,0.4-1,1s0.4,1,1,1h4.3c0.6,0,1-0.4,1-1s-0.4-1-1-1H5268.4z"/>
		<path d="M5272.7,2413.7h-4.3c-0.6,0-1,0.4-1,1s0.4,1,1,1h4.3c0.6,0,1-0.4,1-1C5273.7,2414.1,5273.3,2413.7,5272.7,2413.7z"/>
		<path d="M5272.7,2417h-4.3c-0.6,0-1,0.4-1,1s0.4,1,1,1h4.3c0.6,0,1-0.4,1-1C5273.7,2417.5,5273.3,2417,5272.7,2417z"/>
	</g>
	<g>
		<path class="st0" d="M64,58.5l-21.6,2.8c-1.8,0.2-3.2,1.8-3.2,3.6v18.5c-0.6-0.1-1.2-0.2-1.8-0.2c-4.1,0-7.4,2.7-7.4,6.2
			s3.2,6.2,7.4,6.2c4.1,0,7.4-2.7,7.4-6.2V71.1l17.8-2.3v11.5c-0.6-0.1-1.2-0.2-1.8-0.2c-4.1,0-7.4,2.7-7.4,6.2s3.2,6.2,7.4,6.2
			c4.1,0,7.4-2.7,7.4-6.2V62.1c0-1-0.5-2-1.2-2.7C66.1,58.6,65.1,58.3,64,58.5z"/>
		<path class="st0" d="M85.8,39.1L63.9,17.2c-1.4-1.4-3.3-2.2-5.2-2.2H19.4l0,0c-2,0-3.8,0.8-5.2,2.2S12,20.4,12,22.4v80.2
			c0,4.1,3.3,7.4,7.4,7.4h61.2c4.1,0,7.4-3.3,7.4-7.4V44.3C88,42.4,87.2,40.5,85.8,39.1z M81.6,40.9H65.4c-1.8,0-3.3-1.5-3.3-3.3
			V21.5L81.6,40.9z M80.6,105.7H19.4c-1.7,0-3.1-1.4-3.1-3.1V22.4c0-0.8,0.3-1.6,0.9-2.2c0.6-0.6,1.4-0.9,2.2-0.9l0,0h38.4v18.3
			c0,4.2,3.4,7.6,7.6,7.6h18.3v57.4C83.7,104.3,82.3,105.7,80.6,105.7z"/>
	</g>
</g>
</svg>
