<?xml version="1.0" encoding="utf-8"?>
<!-- Generator: Adobe Illustrator 25.2.0, SVG Export Plug-In . SVG Version: 6.00 Build 0)  -->
<svg version="1.1" id="Layer_1" xmlns="http://www.w3.org/2000/svg" xmlns:xlink="http://www.w3.org/1999/xlink" x="0px" y="0px"
	 viewBox="0 0 512 512" style="enable-background:new 0 0 512 512;" xml:space="preserve">
<style type="text/css">
	.st0{fill:#FFFFFF;}
</style>
<path class="st0" d="M256.3,512c-44.1,0-80-35.9-80-80c0-8.8,7.2-16,16-16s16,7.2,16,16c0,26.5,21.5,48,48,48c26.5,0,48-21.5,48-48
	c0-8.8,7.2-16,16-16s16,7.2,16,16C336.3,476.1,300.4,512,256.3,512z"/>
<path class="st0" d="M432.3,448h-352C59.7,448,43,431.3,43,410.7c0-10.9,4.8-21.3,13.1-28.4C88.5,354.9,107,315,107,272.8v-59.5
	C107,131,174,64,256.3,64c82.3,0,149.3,67,149.3,149.3v59.5c0,42.2,18.5,82.1,50.7,109.3c8.5,7.3,13.3,17.6,13.3,28.5
	C469.7,431.3,452.9,448,432.3,448z M256.3,96C191.6,96,139,148.6,139,213.3v59.5c0,51.6-22.6,100.4-62.1,133.8
	c-0.8,0.6-1.9,2-1.9,4.1c0,2.9,2.4,5.3,5.3,5.3h352c2.9,0,5.3-2.4,5.3-5.3c0-2.1-1.2-3.5-1.9-4.1c-39.5-33.4-62.1-82.2-62.1-133.8
	v-59.5C373.7,148.6,321,96,256.3,96z"/>
<path class="st0" d="M256.3,96c-8.8,0-16-7.2-16-16V16c0-8.8,7.2-16,16-16s16,7.2,16,16v64C272.3,88.8,265.2,96,256.3,96z"/>
</svg>
