<?xml version="1.0" encoding="utf-8"?>
<!-- Generator: Adobe Illustrator 25.2.0, SVG Export Plug-In . SVG Version: 6.00 Build 0)  -->
<svg version="1.1" id="Layer_1" xmlns="http://www.w3.org/2000/svg" xmlns:xlink="http://www.w3.org/1999/xlink" x="0px" y="0px"
	 viewBox="0 0 682 682" style="enable-background:new 0 0 682 682;" xml:space="preserve">
<style type="text/css">
	.st0{fill:#FFFFFF;}
</style>
<path class="st0" d="M641.5,83.2H39.9C29.4,83.2,21,91.6,21,102v470.2c0,10.4,8.5,18.9,18.9,18.9h601.6c10.4,0,18.9-8.5,18.9-18.9
	V102C660.4,91.6,651.9,83.2,641.5,83.2z M622.6,553.4H58.7V120.9h563.9V553.4z"/>
<path class="st0" d="M124.2,367.8h143.3c10.4,0,18.9-8.5,18.9-18.9V182.3c0-10.4-8.5-18.9-18.9-18.9H124.2
	c-10.4,0-18.9,8.5-18.9,18.9v166.6C105.3,359.3,113.8,367.8,124.2,367.8z M143.1,201.2h105.5V330H143.1V201.2z"/>
<path class="st0" d="M352,512.1h206.4c10.4,0,18.9-8.5,18.9-18.9V182.3c0-10.4-8.5-18.9-18.9-18.9h-45v-8.8
	c0-10.4-8.5-18.9-18.9-18.9h-78.7c-10.4,0-18.9,8.5-18.9,18.9v8.8h-45c-10.4,0-18.9,8.5-18.9,18.9v310.9
	C333.1,503.6,341.6,512.1,352,512.1z M434.7,173.5h40.9v41.6h-40.9V173.5z M370.9,201.2H397V234c0,10.4,8.5,18.9,18.9,18.9h78.7
	c10.4,0,18.9-8.4,18.9-18.9v-32.8h26.1v273.1H370.9V201.2z"/>
<path class="st0" d="M146.2,440.4h99.2c10.4,0,18.9-8.5,18.9-18.9c0-10.4-8.5-18.9-18.9-18.9h-99.2c-10.4,0-18.9,8.5-18.9,18.9
	C127.4,431.9,135.8,440.4,146.2,440.4z"/>
<path class="st0" d="M272.8,474.3H129.5c-10.4,0-18.9,8.5-18.9,18.9c0,10.4,8.5,18.9,18.9,18.9h143.3c10.4,0,18.9-8.5,18.9-18.9
	C291.7,482.8,283.2,474.3,272.8,474.3z"/>
</svg>
