<?xml version="1.0" encoding="utf-8"?>
<!-- Generator: Adobe Illustrator 25.2.0, SVG Export Plug-In . SVG Version: 6.00 Build 0)  -->
<svg version="1.1" id="Capa_1" xmlns="http://www.w3.org/2000/svg" xmlns:xlink="http://www.w3.org/1999/xlink" x="0px" y="0px"
	 viewBox="0 0 512 512" style="enable-background:new 0 0 512 512;" xml:space="preserve">
<style type="text/css">
	.st0{fill:#969696;}
</style>
<g>
	<path class="st0" d="M511.9,126.5c-0.3-2.8-1.4-5.7-3.3-8c-0.7-0.9,6.9,6.8-114-114.1C391.7,1.5,387.8,0,384,0C374.9,0,54.1,0,45,0
		C20.2,0,0,20.2,0,45v422c0,24.8,20.2,45,45,45h422c24.8,0,45-20.2,45-45C512,102.8,512,127.7,511.9,126.5L511.9,126.5z M345,30v98
		c0,8.3-6.7,15-15,15h-19V30H345z M281,30v113H142c-8.3,0-15-6.7-15-15V30H281z M345,321H127v-19c0-8.3,6.7-15,15-15h188
		c8.3,0,15,6.7,15,15V321z M127,482V351h218v131H127z M482,467c0,8.3-6.7,15-15,15h-92c0-19.6,0-157.7,0-180c0-24.8-20.2-45-45-45
		H142c-24.8,0-45,20.2-45,45v180H45c-8.3,0-15-6.7-15-15V45c0-8.3,6.7-15,15-15h52v98c0,24.8,20.2,45,45,45h188
		c24.8,0,45-20.2,45-45V30h2.8L482,134.2V467z"/>
</g>
</svg>
