<?xml version="1.0" encoding="utf-8"?>
<!-- Generator: Adobe Illustrator 25.2.0, SVG Export Plug-In . SVG Version: 6.00 Build 0)  -->
<svg version="1.1" id="Capa_1" xmlns="http://www.w3.org/2000/svg" xmlns:xlink="http://www.w3.org/1999/xlink" x="0px" y="0px"
	 viewBox="0 0 477.9 477.9" style="enable-background:new 0 0 477.9 477.9;" xml:space="preserve">
<style type="text/css">
	.st0{fill:#969696;}
</style>
<g>
	<g>
		<path class="st0" d="M443.7,307.2c-9.4,0-17.1,7.6-17.1,17.1v102.4c0,9.4-7.6,17.1-17.1,17.1H68.3c-9.4,0-17.1-7.6-17.1-17.1
			V324.3c0-9.4-7.6-17.1-17.1-17.1s-17.1,7.6-17.1,17.1v102.4c0,28.3,22.9,51.2,51.2,51.2h341.3c28.3,0,51.2-22.9,51.2-51.2V324.3
			C460.8,314.8,453.2,307.2,443.7,307.2z"/>
	</g>
</g>
<g>
	<g>
		<path class="st0" d="M335.9,295.1c-6.6-6.4-17.1-6.4-23.7,0L256,351.3V17.1C256,7.6,248.4,0,238.9,0s-17.1,7.6-17.1,17.1v334.3
			l-56.2-56.2c-6.8-6.5-17.6-6.4-24.1,0.4c-6.4,6.6-6.4,17.1,0,23.7l85.3,85.3c6.7,6.7,17.5,6.7,24.1,0c0,0,0,0,0,0l85.3-85.3
			C342.9,312.5,342.7,301.7,335.9,295.1z"/>
	</g>
</g>
</svg>
