<?xml version="1.0" encoding="utf-8"?>
<!-- Generator: Adobe Illustrator 25.2.0, SVG Export Plug-In . SVG Version: 6.00 Build 0)  -->
<svg version="1.1" id="Layer_1" xmlns="http://www.w3.org/2000/svg" xmlns:xlink="http://www.w3.org/1999/xlink" x="0px" y="0px"
	 viewBox="0 0 100 125" style="enable-background:new 0 0 100 125;" xml:space="preserve">
<style type="text/css">
	.st0{fill:#969696;}
</style>
<g id="Layer_2_1_">
</g>
<g id="Layer_1_1_">
	<path class="st0" d="M85.6,38.8l-21-21.1c-1.7-1.7-3.9-2.6-6.3-2.6H20.5l0,0c-2.4,0-4.6,0.9-6.3,2.6s-2.6,3.9-2.6,6.3V101
		c0,4.9,4,8.9,8.9,8.9h58.9c4.9,0,8.9-4,8.9-8.9V45C88.3,42.6,87.3,40.4,85.6,38.8z M61.4,25.5l16.4,16.4H63.2c-1,0-1.7-0.8-1.7-1.7
		V25.5z M79.3,102.2H20.5c-0.6,0-1.1-0.5-1.1-1.1V23.9c0-0.4,0.2-0.7,0.3-0.8c0.2-0.2,0.4-0.3,0.8-0.3h33.1v17.4
		c0,5.3,4.3,9.5,9.5,9.5h17.3v51.4C80.5,101.7,80,102.2,79.3,102.2z"/>
</g>
</svg>
