<?xml version="1.0" encoding="utf-8"?>
<!-- Generator: Adobe Illustrator 25.2.0, SVG Export Plug-In . SVG Version: 6.00 Build 0)  -->
<svg version="1.1" id="Capa_1" xmlns="http://www.w3.org/2000/svg" xmlns:xlink="http://www.w3.org/1999/xlink" x="0px" y="0px"
	 viewBox="0 0 512 512" style="enable-background:new 0 0 512 512;" xml:space="preserve">
<style type="text/css">
	.st0{fill:#969696;}
</style>
<g>
	<g>
		<path class="st0" d="M448.9,118.3H286.9c-6.6,0-13-2.7-17.4-7.3l-50.6-53.3c-12.2-12.1-28.8-18.4-45.6-18.3H63.1
			C28.3,39.4,0,67.7,0,102.4v307.1c0,34.8,28.3,63.1,63.1,63.1h386.1h0.1c34.8-0.2,62.9-28.6,62.8-63.3v-228
			C512,146.6,483.7,118.3,448.9,118.3z M473.4,409.4c0.1,13.5-10.9,24.6-24.3,24.6h-386c-13.5,0-24.5-11-24.5-24.5V102.4
			c0-13.5,11-24.5,24.5-24.5h110.7c0.2,0,0.4,0,0.6,0c6.4,0,12.7,2.6,16.9,6.7l50.3,53c11.8,12.2,28.3,19.2,45.3,19.2h162.1
			c13.5,0,24.5,11,24.5,24.5L473.4,409.4L473.4,409.4z"/>
	</g>
</g>
</svg>
