<?xml version="1.0" encoding="UTF-8"?>
<svg xmlns="http://www.w3.org/2000/svg" xmlns:xlink="http://www.w3.org/1999/xlink" width="360pt" height="450pt" viewBox="0 0 360 450" version="1.1">
<g id="surface1">
<path style=" stroke:none;fill-rule:nonzero;fill:rgb(58.823529%,58.823529%,58.823529%);fill-opacity:1;" d="M 308.160156 139.679688 L 232.558594 63.71875 C 226.441406 57.601562 218.519531 54.359375 209.878906 54.359375 L 73.800781 54.359375 C 65.160156 54.359375 57.238281 57.601562 51.121094 63.71875 C 45 69.839844 41.761719 77.761719 41.761719 86.398438 L 41.761719 363.960938 C 41.761719 381.601562 56.160156 396 73.800781 396 L 285.839844 396 C 303.480469 396 317.878906 381.601562 317.878906 363.960938 L 317.878906 162 C 317.878906 153.71875 314.28125 145.441406 308.160156 139.679688 Z M 221.398438 91.800781 L 280.441406 150.839844 L 227.519531 150.839844 C 223.921875 150.839844 221.398438 147.960938 221.398438 144.71875 Z M 285.480469 367.921875 L 73.800781 367.921875 C 71.640625 367.921875 69.839844 366.121094 69.839844 363.960938 L 69.839844 86.039062 C 69.839844 84.601562 70.558594 83.519531 70.921875 83.160156 C 71.640625 82.441406 72.359375 82.078125 73.800781 82.078125 L 192.960938 82.078125 L 192.960938 144.71875 C 192.960938 163.800781 208.441406 178.921875 227.160156 178.921875 L 289.441406 178.921875 L 289.441406 363.960938 C 289.800781 366.480469 288 367.921875 285.480469 367.921875 Z M 285.480469 367.921875 "/>
<path style=" stroke:none;fill-rule:nonzero;fill:rgb(58.823529%,58.823529%,58.823529%);fill-opacity:1;" d="M 220.320312 271.441406 C 217.078125 265.679688 208.800781 265.679688 205.199219 271.441406 L 190.078125 296.28125 L 164.878906 254.160156 C 161.640625 248.398438 153.359375 248.398438 149.761719 254.160156 L 108.71875 323.28125 C 105.121094 329.039062 109.441406 336.601562 116.28125 336.601562 L 243.71875 336.601562 C 250.558594 336.601562 254.878906 329.039062 251.28125 323.28125 Z M 220.320312 271.441406 "/>
<path style=" stroke:none;fill-rule:nonzero;fill:rgb(58.823529%,58.823529%,58.823529%);fill-opacity:1;" d="M 222.480469 226.078125 C 222.480469 237.613281 213.132812 246.960938 201.601562 246.960938 C 190.066406 246.960938 180.71875 237.613281 180.71875 226.078125 C 180.71875 214.546875 190.066406 205.199219 201.601562 205.199219 C 213.132812 205.199219 222.480469 214.546875 222.480469 226.078125 Z M 222.480469 226.078125 "/>
</g>
</svg>
