<?xml version="1.0" encoding="utf-8"?>
<!-- Generator: Adobe Illustrator 25.2.0, SVG Export Plug-In . SVG Version: 6.00 Build 0)  -->
<svg version="1.1" id="Layer_1" xmlns="http://www.w3.org/2000/svg" xmlns:xlink="http://www.w3.org/1999/xlink" x="0px" y="0px"
	 viewBox="0 0 512 512" style="enable-background:new 0 0 512 512;" xml:space="preserve">
<style type="text/css">
	.st0{fill:#969696;}
</style>
<path class="st0" d="M400,512H112c-26.5,0-48-21.5-48-48V240c0-26.5,21.5-48,48-48h288c26.5,0,48,21.5,48,48v224
	C448,490.5,426.5,512,400,512z M112,224c-8.8,0-16,7.2-16,16v224c0,8.8,7.2,16,16,16h288c8.8,0,16-7.2,16-16V240c0-8.8-7.2-16-16-16
	H112z"/>
<path class="st0" d="M368,224c-8.8,0-16-7.2-16-16v-80c0-52.9-43.1-96-96-96s-96,43.1-96,96v80c0,8.8-7.2,16-16,16s-16-7.2-16-16
	v-80C128,57.4,185.4,0,256,0s128,57.4,128,128v80C384,216.8,376.8,224,368,224z"/>
</svg>
