<?xml version="1.0" encoding="utf-8"?>
<!-- Generator: Adobe Illustrator 25.2.0, SVG Export Plug-In . SVG Version: 6.00 Build 0)  -->
<svg version="1.1" xmlns="http://www.w3.org/2000/svg" xmlns:xlink="http://www.w3.org/1999/xlink" x="0px" y="0px"
	 viewBox="0 0 100 125" style="enable-background:new 0 0 100 125;" xml:space="preserve">
<style type="text/css">
	.st0{fill:#969696;}
</style>
<g id="Layer_2">
</g>
<g id="Layer_1">
	<g>
		<path d="M5273.1,2400.1v-2c0-2.8-5-4-9.7-4s-9.7,1.3-9.7,4v2c0,1.8,0.7,3.6,2,4.9l5,4.9c0.3,0.3,0.4,0.6,0.4,1v6.4
			c0,0.4,0.2,0.7,0.6,0.8l2.9,0.9c0.5,0.1,1-0.2,1-0.8v-7.2c0-0.4,0.2-0.7,0.4-1l5.1-5C5272.4,2403.7,5273.1,2401.9,5273.1,2400.1z
			 M5263.4,2400c-4.8,0-7.4-1.3-7.5-1.8l0,0c0.1-0.5,2.7-1.8,7.5-1.8s7.3,1.3,7.5,1.8C5270.7,2398.7,5268.2,2400,5263.4,2400z"/>
		<path d="M5268.4,2410.3c-0.6,0-1,0.4-1,1s0.4,1,1,1h4.3c0.6,0,1-0.4,1-1s-0.4-1-1-1H5268.4z"/>
		<path d="M5272.7,2413.7h-4.3c-0.6,0-1,0.4-1,1s0.4,1,1,1h4.3c0.6,0,1-0.4,1-1C5273.7,2414.1,5273.3,2413.7,5272.7,2413.7z"/>
		<path d="M5272.7,2417h-4.3c-0.6,0-1,0.4-1,1s0.4,1,1,1h4.3c0.6,0,1-0.4,1-1C5273.7,2417.5,5273.3,2417,5272.7,2417z"/>
	</g>
	<g>
		<path class="st0" d="M85.6,38.8l-21-21.1c-1.7-1.7-3.9-2.6-6.3-2.6H20.5l0,0c-2.4,0-4.6,0.9-6.3,2.6s-2.6,3.9-2.6,6.3v77.1
			c0,4.9,4,8.9,8.9,8.9h58.9c4.9,0,8.9-4,8.9-8.9V45C88.3,42.7,87.3,40.5,85.6,38.8z M61.5,25.5L77.8,42H63.2c-1,0-1.7-0.8-1.7-1.7
			V25.5z M79.3,102.2H20.5c-0.6,0-1.1-0.5-1.1-1.1V23.9c0-0.4,0.2-0.7,0.3-0.8c0.2-0.2,0.4-0.3,0.8-0.3h33.1v17.4
			c0,5.3,4.3,9.5,9.5,9.5h17.3v51.4C80.5,101.8,80,102.2,79.3,102.2z"/>
		<path class="st0" d="M62.2,76.6H49c-0.5,0-0.9-0.4-0.9-0.9V62.5c0-0.5-0.4-0.9-0.9-0.9c-7.9,0.5-14.1,7-14.1,15
			c0,8.1,7,15.1,15.2,15c7.9-0.1,14.3-6.3,14.8-14.1C63,76.9,62.7,76.6,62.2,76.6z"/>
		<path class="st0" d="M52.9,57.8c-0.5,0-0.9,0.4-0.9,0.9v13.2c0,0.5,0.4,0.9,0.9,0.9h13.1c0.5,0,0.9-0.4,0.9-0.9
			C66.3,64.2,60.4,58.2,52.9,57.8z"/>
	</g>
</g>
</svg>
