<?xml version="1.0" encoding="utf-8"?>
<!-- Generator: Adobe Illustrator 25.2.0, SVG Export Plug-In . SVG Version: 6.00 Build 0)  -->
<svg version="1.1" id="Capa_1" xmlns="http://www.w3.org/2000/svg" xmlns:xlink="http://www.w3.org/1999/xlink" x="0px" y="0px"
	 viewBox="0 0 512 512" style="enable-background:new 0 0 512 512;" xml:space="preserve">
<style type="text/css">
	.st0{fill:#969696;}
</style>
<g>
	<g>
		<path class="st0" d="M482,182.6V135c0-24.8-20.2-45-45-45h-23.8L327.6,4.4c0,0,0,0-0.1-0.1c-2.7-2.6-6.4-4.3-10.3-4.3
			c-0.1,0-0.2,0-0.2,0H105c-8.3,0-15,6.7-15,15v75H75c-24.8,0-45,20.2-45,45v47.6C12.5,188.8,0,205.4,0,225v182
			c0,24.8,20.2,45,45,45h45v45c0,8.3,6.7,15,15,15h302c8.3,0,15-6.7,15-15v-45h45c24.8,0,45-20.2,45-45V225
			C512,205.4,499.5,188.8,482,182.6z M422,120h15c8.3,0,15,6.7,15,15v45h-30V120z M332,51.2L370.8,90H332V51.2z M120,30h182v75
			c0,8.3,6.7,15,15,15h75v60H120V30z M60,135c0-8.3,6.7-15,15-15h15v60H60V135z M392,482H120V332h272V482z M482,407
			c0,8.3-6.7,15-15,15h-45v-90h15c8.3,0,15-6.7,15-15s-6.7-15-15-15c-12.2,0-344.8,0-362,0c-8.3,0-15,6.7-15,15s6.7,15,15,15h15v90
			H45c-8.3,0-15-6.7-15-15V225c0-8.3,6.7-15,15-15c18.1,0,401.3,0,422,0c8.3,0,15,6.7,15,15V407z"/>
	</g>
</g>
<g>
	<g>
		<path class="st0" d="M347,362H165c-8.3,0-15,6.7-15,15s6.7,15,15,15h182c8.3,0,15-6.7,15-15S355.3,362,347,362z"/>
	</g>
</g>
<g>
	<g>
		<path class="st0" d="M347,422H165c-8.3,0-15,6.7-15,15s6.7,15,15,15h182c8.3,0,15-6.7,15-15S355.3,422,347,422z"/>
	</g>
</g>
<g>
	<g>
		<path class="st0" d="M105,240H75c-8.3,0-15,6.7-15,15s6.7,15,15,15h30c8.3,0,15-6.7,15-15S113.3,240,105,240z"/>
	</g>
</g>
</svg>
